<?xml version="1.0" encoding="UTF-8" standalone="no"?>
<!-- Created with Inkscape (http://www.inkscape.org/) -->

<svg
   xmlns:dc="http://purl.org/dc/elements/1.1/"
   xmlns:cc="http://creativecommons.org/ns#"
   xmlns:rdf="http://www.w3.org/1999/02/22-rdf-syntax-ns#"
   xmlns:svg="http://www.w3.org/2000/svg"
   xmlns="http://www.w3.org/2000/svg"
   xmlns:xlink="http://www.w3.org/1999/xlink"
   xmlns:sodipodi="http://sodipodi.sourceforge.net/DTD/sodipodi-0.dtd"
   xmlns:inkscape="http://www.inkscape.org/namespaces/inkscape"
   width="744.09448819"
   height="1052.3622047"
   id="svg2"
   version="1.1"
   inkscape:version="0.47 r22583"
   sodipodi:docname="SingleGapPlot.svg">
  <sodipodi:namedview
     id="base"
     pagecolor="#ffffff"
     bordercolor="#666666"
     borderopacity="1.0"
     inkscape:pageopacity="0.0"
     inkscape:pageshadow="2"
     inkscape:zoom="0.35"
     inkscape:cx="445.00483"
     inkscape:cy="676.04641"
     inkscape:document-units="px"
     inkscape:current-layer="layer2"
     showgrid="false"
     inkscape:window-width="1596"
     inkscape:window-height="1153"
     inkscape:window-x="0"
     inkscape:window-y="24"
     inkscape:window-maximized="1" />
  <defs
     id="defs4">
    <inkscape:perspective
       sodipodi:type="inkscape:persp3d"
       inkscape:vp_x="0 : 526.18109 : 1"
       inkscape:vp_y="0 : 1000 : 0"
       inkscape:vp_z="744.09448 : 526.18109 : 1"
       inkscape:persp3d-origin="372.04724 : 350.78739 : 1"
       id="perspective10" />
    <inkscape:perspective
       id="perspective2824"
       inkscape:persp3d-origin="0.5 : 0.33333333 : 1"
       inkscape:vp_z="1 : 0.5 : 1"
       inkscape:vp_y="0 : 1000 : 0"
       inkscape:vp_x="0 : 0.5 : 1"
       sodipodi:type="inkscape:persp3d" />
    <inkscape:perspective
       id="perspective3691"
       inkscape:persp3d-origin="0.5 : 0.33333333 : 1"
       inkscape:vp_z="1 : 0.5 : 1"
       inkscape:vp_y="0 : 1000 : 0"
       inkscape:vp_x="0 : 0.5 : 1"
       sodipodi:type="inkscape:persp3d" />
    <marker
       inkscape:stockid="Arrow2Mend"
       orient="auto"
       refY="0"
       refX="0"
       id="Arrow2Mend-5-7"
       style="overflow:visible">
      <path
         id="path5028-2-2"
         style="font-size:12px;fill-rule:evenodd;stroke-width:0.625;stroke-linejoin:round"
         d="M 8.7185878,4.0337352 -2.2072895,0.01601326 8.7185884,-4.0017078 c -1.7454984,2.3720609 -1.7354408,5.6174519 -6e-7,8.035443 z"
         transform="scale(-0.6,-0.6)"
         inkscape:connector-curvature="0" />
    </marker>
    <inkscape:perspective
       id="perspective3719"
       inkscape:persp3d-origin="0.5 : 0.33333333 : 1"
       inkscape:vp_z="1 : 0.5 : 1"
       inkscape:vp_y="0 : 1000 : 0"
       inkscape:vp_x="0 : 0.5 : 1"
       sodipodi:type="inkscape:persp3d" />
    <marker
       inkscape:stockid="Arrow2Mend"
       orient="auto"
       refY="0"
       refX="0"
       id="Arrow2Mend-5-7-2"
       style="overflow:visible">
      <path
         id="path5028-2-2-1"
         style="font-size:12px;fill-rule:evenodd;stroke-width:0.625;stroke-linejoin:round"
         d="M 8.7185878,4.0337352 -2.2072895,0.01601326 8.7185884,-4.0017078 c -1.7454984,2.3720609 -1.7354408,5.6174519 -6e-7,8.035443 z"
         transform="scale(-0.6,-0.6)"
         inkscape:connector-curvature="0" />
    </marker>
    <inkscape:perspective
       id="perspective3747"
       inkscape:persp3d-origin="0.5 : 0.33333333 : 1"
       inkscape:vp_z="1 : 0.5 : 1"
       inkscape:vp_y="0 : 1000 : 0"
       inkscape:vp_x="0 : 0.5 : 1"
       sodipodi:type="inkscape:persp3d" />
    <marker
       inkscape:stockid="Arrow2Mend"
       orient="auto"
       refY="0"
       refX="0"
       id="Arrow2Mend-5-7-9"
       style="overflow:visible">
      <path
         id="path5028-2-2-6"
         style="font-size:12px;fill-rule:evenodd;stroke-width:0.625;stroke-linejoin:round"
         d="M 8.7185878,4.0337352 -2.2072895,0.01601326 8.7185884,-4.0017078 c -1.7454984,2.3720609 -1.7354408,5.6174519 -6e-7,8.035443 z"
         transform="scale(-0.6,-0.6)"
         inkscape:connector-curvature="0" />
    </marker>
    <inkscape:perspective
       sodipodi:type="inkscape:persp3d"
       inkscape:vp_x="0 : 0.5 : 1"
       inkscape:vp_y="0 : 1000 : 0"
       inkscape:vp_z="1 : 0.5 : 1"
       inkscape:persp3d-origin="0.5 : 0.33333333 : 1"
       id="perspective2861" />
    <inkscape:perspective
       id="perspective3586"
       inkscape:persp3d-origin="0.5 : 0.33333333 : 1"
       inkscape:vp_z="1 : 0.5 : 1"
       inkscape:vp_y="0 : 1000 : 0"
       inkscape:vp_x="0 : 0.5 : 1"
       sodipodi:type="inkscape:persp3d" />
    <marker
       inkscape:stockid="Arrow2Mend"
       orient="auto"
       refY="0"
       refX="0"
       id="Arrow2Mend-5-7-28"
       style="overflow:visible">
      <path
         id="path5028-2-2-68"
         style="font-size:12px;fill-rule:evenodd;stroke-width:0.625;stroke-linejoin:round"
         d="M 8.7185878,4.0337352 -2.2072895,0.01601326 8.7185884,-4.0017078 c -1.7454984,2.3720609 -1.7354408,5.6174519 -6e-7,8.035443 z"
         transform="scale(-0.6,-0.6)"
         inkscape:connector-curvature="0" />
    </marker>
    <inkscape:perspective
       id="perspective3614"
       inkscape:persp3d-origin="0.5 : 0.33333333 : 1"
       inkscape:vp_z="1 : 0.5 : 1"
       inkscape:vp_y="0 : 1000 : 0"
       inkscape:vp_x="0 : 0.5 : 1"
       sodipodi:type="inkscape:persp3d" />
    <marker
       inkscape:stockid="Arrow2Mend"
       orient="auto"
       refY="0"
       refX="0"
       id="Arrow2Mend-5-7-7"
       style="overflow:visible">
      <path
         id="path5028-2-2-61"
         style="font-size:12px;fill-rule:evenodd;stroke-width:0.625;stroke-linejoin:round"
         d="M 8.7185878,4.0337352 -2.2072895,0.01601326 8.7185884,-4.0017078 c -1.7454984,2.3720609 -1.7354408,5.6174519 -6e-7,8.035443 z"
         transform="scale(-0.6,-0.6)"
         inkscape:connector-curvature="0" />
    </marker>
  </defs>
  <metadata
     id="metadata7">
    <rdf:RDF>
      <cc:Work
         rdf:about="">
        <dc:format>image/svg+xml</dc:format>
        <dc:type
           rdf:resource="http://purl.org/dc/dcmitype/StillImage" />
        <dc:title />
      </cc:Work>
    </rdf:RDF>
  </metadata>
  <g
     inkscape:label="Base"
     inkscape:groupmode="layer"
     id="layer1" />
  <g
     inkscape:groupmode="layer"
     id="layer2"
     inkscape:label="Notations">
    <image
       xlink:href="file:///home/cjoverzijl/Documents/Publications/Papers/TPP%20Experiments/img/SingleGapPlot3.png"
       width="1500"
       height="1575"
       id="image2863"
       x="-524.28577"
       y="-257.99496" />
    <path
       sodipodi:nodetypes="cc"
       style="fill:none;stroke:#000000;stroke-width:4.87713003;stroke-linecap:butt;stroke-linejoin:miter;stroke-miterlimit:4;stroke-opacity:1;stroke-dasharray:none;marker-start:none;marker-end:url(#Arrow2Mend-5-7);display:inline"
       d="m -11.095997,868.73587 0,-63.01252"
       id="path4228-7-1-9-5"
       inkscape:connector-curvature="0" />
    <path
       sodipodi:nodetypes="cc"
       style="fill:none;stroke:#000000;stroke-width:4.87713003;stroke-linecap:butt;stroke-linejoin:miter;stroke-miterlimit:4;stroke-opacity:1;stroke-dasharray:none;marker-start:none;marker-end:url(#Arrow2Mend-5-7);display:inline"
       d="m -8.7634769,-28.299773 0,63.012518"
       id="path4228-7-1"
       inkscape:connector-curvature="0" />
    <path
       sodipodi:nodetypes="cc"
       style="fill:none;stroke:#000000;stroke-width:4.87713003;stroke-linecap:butt;stroke-linejoin:miter;stroke-miterlimit:4;stroke-opacity:1;stroke-dasharray:none;marker-start:none;marker-end:url(#Arrow2Mend-5-7);display:inline"
       d="m 639.96512,23.667438 0,-63.01252"
       id="path4228-7-1-9"
       inkscape:connector-curvature="0" />
    <path
       sodipodi:nodetypes="cc"
       style="fill:none;stroke:#000000;stroke-width:4.87713003;stroke-linecap:butt;stroke-linejoin:miter;stroke-miterlimit:4;stroke-opacity:1;stroke-dasharray:none;marker-start:none;marker-end:url(#Arrow2Mend-5-7);display:inline"
       d="m 645.66742,901.70277 0,63.01252"
       id="path4228-7-1-9-0-3"
       inkscape:connector-curvature="0" />
    <g
       id="g2944"
       transform="matrix(1.1652089,0,0,1.1652089,198.88271,-350.10418)">
      <g
         id="g2946"
         transform="matrix(1.0629921,0,0,-1.0629921,-186.02362,789.27165)"
         xml:space="preserve"
         stroke-miterlimit="10.433"
         fill-rule="even-odd"
         font-style="normal"
         font-variant="normal"
         font-weight="normal"
         font-stretch="normal"
         font-size-adjust="none"
         letter-spacing="normal"
         word-spacing="normal"
         style="font-style:normal;font-variant:normal;font-weight:normal;font-stretch:normal;letter-spacing:normal;word-spacing:normal;text-anchor:start;fill:none;stroke:#000000;stroke-linecap:butt;stroke-linejoin:miter;stroke-miterlimit:10.43299961;stroke-opacity:1;stroke-dasharray:none;stroke-dashoffset:0"><path
           d="m 478.91,421.94 0,0.75 -0.01,0.74 -0.02,0.75 -0.03,0.74 -0.05,0.75 -0.06,0.74 -0.07,0.74 -0.1,0.73 -0.11,0.73 -0.14,0.73 -0.16,0.72 -0.19,0.72 -0.22,0.71 -0.24,0.71 -0.28,0.7 -0.15,0.35 -0.16,0.35 c -2.29,4.78 -6.37,5.58 -8.47,5.58 -2.99,0 -6.62,-1.3 -8.66,-5.93 -1.6,-3.44 -1.85,-7.32 -1.85,-11.31 0,-3.74 0.2,-8.22 2.24,-12.01 2.15,-4.03 5.78,-5.03 8.22,-5.03 v 1.1 c -1.94,0 -4.88,1.25 -5.78,6.03 -0.54,2.99 -0.54,7.57 -0.54,10.51 0,3.19 0,6.47 0.4,9.16 0.94,5.93 4.68,6.38 5.92,6.38 1.65,0 4.94,-0.9 5.88,-5.83 0.5,-2.79 0.5,-6.57 0.5,-9.71 0,-3.74 0,-7.13 -0.55,-10.31 -0.75,-4.73 -3.59,-6.23 -5.83,-6.23 h 0 v -1.1 c 2.69,0 6.48,1.05 8.67,5.78 1.59,3.44 1.84,7.32 1.84,11.26 z"
           id="path2948"
           style="fill:#000000;stroke-width:0" /><path
           d="m 489.56,408.64 0,0.14 -0.01,0.13 -0.02,0.13 -0.02,0.13 -0.03,0.13 -0.04,0.12 -0.04,0.12 -0.05,0.12 -0.05,0.12 -0.06,0.11 -0.06,0.11 -0.07,0.11 -0.08,0.1 -0.07,0.1 -0.09,0.1 -0.09,0.09 -0.09,0.09 -0.09,0.08 -0.1,0.08 -0.11,0.08 -0.1,0.07 -0.11,0.06 -0.12,0.06 -0.11,0.05 -0.12,0.05 -0.13,0.04 -0.12,0.04 -0.13,0.03 -0.13,0.02 -0.13,0.02 -0.13,0.01 -0.13,0 c -1.45,0 -2.64,-1.19 -2.64,-2.64 0,-1.44 1.19,-2.64 2.64,-2.64 1.44,0 2.63,1.2 2.63,2.64 z"
           id="path2950"
           style="fill:#000000;stroke-width:0" /><path
           d="m 508.64,414.22 v -4.33 c 0,-1.8 -0.09,-2.35 -3.78,-2.35 h -1.05 V 406 h 13.5 v 1.54 h -1.04 c -3.69,0 -3.79,0.55 -3.79,2.35 v 4.33 h 4.98 v 1.54 h -4.98 v 22.67 c 0,1 0,1.29 -0.8,1.29 -0.45,0 -0.59,0 -0.99,-0.6 l -15.3,-23.36 h 1.4 l 12.16,18.58 v -18.58 h -12.16 -1.4 v -1.54 z"
           id="path2952"
           style="fill:#000000;stroke-width:0" /><path
           d="m 566.93,435.14 0.07,0.17 0.07,0.17 0.08,0.17 0.08,0.16 0.08,0.16 0.09,0.16 0.1,0.15 0.1,0.15 0.11,0.15 0.11,0.14 0.12,0.14 0.13,0.13 0.13,0.13 0.14,0.13 0.15,0.12 0.15,0.11 0.16,0.11 0.17,0.11 0.18,0.09 0.19,0.1 0.2,0.08 0.2,0.08 0.22,0.08 0.22,0.07 0.24,0.06 0.24,0.05 0.26,0.05 0.27,0.04 0.27,0.03 0.29,0.02 0.3,0.02 0.31,0.01 v 1.54 h -10.51 v -1.54 c 2.59,-0.05 3.64,-1.35 3.64,-2.49 0,-0.4 -0.15,-0.7 -0.25,-1 l -9.12,-24.01 -9.51,25.16 c -0.3,0.7 -0.3,0.79 -0.3,0.9 0,1.44 2.84,1.44 4.09,1.44 v 1.54 h -13.45 v -1.54 c 3.23,0 4.18,0 4.88,-1.89 L 553.39,406 c 0.34,-0.95 0.59,-1.1 1.24,-1.1 0.85,0 0.95,0.25 1.19,0.95 z"
           id="path2954"
           style="fill:#000000;stroke-width:0" /><path
           d="m 594.82,441.47 0.01,0.03 0.01,0.03 0.01,0.03 0.01,0.02 0.01,0.03 0.01,0.03 0.01,0.02 0.01,0.03 0.01,0.02 0.01,0.03 0.01,0.04 0.02,0.05 0.01,0.04 0.01,0.04 0.01,0.03 0.02,0.04 0,0.03 0.01,0.03 0.01,0.03 0.01,0.03 0,0.02 0.01,0.02 0.01,0.03 0,0.02 0,0.02 0.01,0.02 0,0.01 0,0.02 0,0.01 0,0.02 0,0.01 0.01,0.01 0,0.01 0,0.02 0,0.02 c 0,0.55 -0.45,1 -1,1 -0.69,0 -0.89,-0.5 -1.05,-1 l -16.98,-46.92 c -0.25,-0.65 -0.25,-0.8 -0.25,-0.9 0,-0.54 0.45,-0.99 0.99,-0.99 0.7,0 0.9,0.49 1.05,0.99 z"
           id="path2956"
           style="fill:#000000;stroke-width:0" /><path
           d="m 603.48,423.14 v -13.35 c 0,-2.25 -0.55,-2.25 -3.89,-2.25 V 406 h 11.21 v 1.54 c -3.33,0 -3.88,0 -3.88,2.25 v 9.16 c 0,5.18 3.53,7.97 6.72,7.97 3.14,0 3.69,-2.69 3.69,-5.53 v -11.6 c 0,-2.25 -0.55,-2.25 -3.89,-2.25 V 406 h 11.21 v 1.54 c -2.59,0 -3.84,0 -3.88,1.5 v 9.51 c 0,4.29 0,5.83 -1.55,7.63 -0.7,0.84 -2.34,1.84 -5.23,1.84 -3.64,0 -5.98,-2.14 -7.37,-5.23 v 5.23 l -7.03,-0.55 v -1.54 c 3.49,0 3.89,-0.35 3.89,-2.79 z"
           id="path2958"
           style="fill:#000000;stroke-width:0" /><path
           d="m 631.48,423.14 v -13.35 c 0,-2.25 -0.55,-2.25 -3.89,-2.25 V 406 h 11.21 v 1.54 c -3.33,0 -3.88,0 -3.88,2.25 v 9.16 c 0,5.18 3.53,7.97 6.72,7.97 3.14,0 3.69,-2.69 3.69,-5.53 v -11.6 c 0,-2.25 -0.55,-2.25 -3.89,-2.25 V 406 h 11.21 v 1.54 c -3.34,0 -3.88,0 -3.88,2.25 v 9.16 c 0,5.18 3.53,7.97 6.72,7.97 3.14,0 3.69,-2.69 3.69,-5.53 v -11.6 c 0,-2.25 -0.55,-2.25 -3.89,-2.25 V 406 h 11.21 v 1.54 c -2.59,0 -3.84,0 -3.89,1.5 v 9.51 c 0,4.29 0,5.83 -1.54,7.63 -0.7,0.84 -2.34,1.84 -5.23,1.84 -4.19,0 -6.38,-2.99 -7.23,-4.88 -0.69,4.33 -4.38,4.88 -6.62,4.88 -3.64,0 -5.98,-2.14 -7.37,-5.23 v 5.23 l -7.03,-0.55 v -1.54 c 3.49,0 3.89,-0.35 3.89,-2.79 z"
           id="path2960"
           style="fill:#000000;stroke-width:0" /></g>    </g>
    <g
       id="g3116"
       transform="matrix(1.1652089,0,0,1.1652089,245.11349,480.23041)">
      <g
         word-spacing="normal"
         letter-spacing="normal"
         font-size-adjust="none"
         font-stretch="normal"
         font-weight="normal"
         font-variant="normal"
         font-style="normal"
         fill-rule="even-odd"
         stroke-miterlimit="10.433"
         xml:space="preserve"
         transform="matrix(1.0629921,0,0,-1.0629921,-186.02362,789.27165)"
         id="g3118"
         style="font-style:normal;font-variant:normal;font-weight:normal;font-stretch:normal;letter-spacing:normal;word-spacing:normal;text-anchor:start;fill:none;stroke:#000000;stroke-linecap:butt;stroke-linejoin:miter;stroke-miterlimit:10.43299961;stroke-opacity:1;stroke-dasharray:none;stroke-dashoffset:0"><path
           id="path3120"
           d="m 470.64,437.88 0,0.05 0,0.06 0,0.05 0,0.05 0,0.05 0,0.05 0,0.04 0,0.05 0,0.04 0,0.04 0,0.04 0,0.04 0,0.04 -0.01,0.04 0,0.03 0,0.04 -0.01,0.03 0,0.03 -0.01,0.06 -0.01,0.05 -0.02,0.05 -0.01,0.05 -0.02,0.04 -0.02,0.04 -0.03,0.04 -0.03,0.03 -0.03,0.02 -0.03,0.03 -0.04,0.02 -0.05,0.02 -0.02,0.01 -0.03,0.01 -0.02,0 -0.03,0.01 -0.03,0.01 -0.03,0 -0.03,0.01 -0.03,0 -0.03,0.01 -0.04,0 -0.04,0 -0.03,0 -0.04,0.01 -0.04,0 -0.04,0 -0.05,0 -0.04,0 -0.05,0 -0.05,0.01 -0.05,0 -0.05,0 -0.05,0 c -3.09,-3.19 -7.47,-3.19 -9.07,-3.19 v -1.55 c 1,0 3.94,0 6.53,1.3 v -25.81 c 0,-1.79 -0.15,-2.39 -4.63,-2.39 h -1.6 V 406 h 16.14 v 1.54 h -1.59 c -4.49,0 -4.64,0.55 -4.64,2.39 z"
           style="fill:#000000;stroke-width:0" /><path
           id="path3122"
           d="m 489.56,408.64 0,0.14 -0.01,0.13 -0.02,0.13 -0.02,0.13 -0.03,0.13 -0.04,0.12 -0.04,0.12 -0.05,0.12 -0.05,0.12 -0.06,0.11 -0.06,0.11 -0.07,0.11 -0.08,0.1 -0.07,0.1 -0.09,0.1 -0.09,0.09 -0.09,0.09 -0.09,0.08 -0.1,0.08 -0.11,0.08 -0.1,0.07 -0.11,0.06 -0.12,0.06 -0.11,0.05 -0.12,0.05 -0.13,0.04 -0.12,0.04 -0.13,0.03 -0.13,0.02 -0.13,0.02 -0.13,0.01 -0.13,0 c -1.45,0 -2.64,-1.19 -2.64,-2.64 0,-1.44 1.19,-2.64 2.64,-2.64 1.44,0 2.63,1.2 2.63,2.64 z"
           style="fill:#000000;stroke-width:0" /><path
           id="path3124"
           d="m 508.64,437.88 0,0.05 0,0.06 0,0.05 0,0.05 0,0.05 0,0.05 0,0.04 0,0.05 0,0.04 0,0.04 0,0.04 0,0.04 0,0.04 -0.01,0.04 0,0.03 0,0.04 -0.01,0.03 0,0.03 -0.01,0.06 -0.01,0.05 -0.02,0.05 -0.01,0.05 -0.02,0.04 -0.02,0.04 -0.03,0.04 -0.03,0.03 -0.03,0.02 -0.03,0.03 -0.04,0.02 -0.05,0.02 -0.02,0.01 -0.03,0.01 -0.02,0 -0.03,0.01 -0.03,0.01 -0.03,0 -0.03,0.01 -0.03,0 -0.03,0.01 -0.04,0 -0.04,0 -0.03,0 -0.04,0.01 -0.04,0 -0.04,0 -0.05,0 -0.04,0 -0.05,0 -0.05,0.01 -0.05,0 -0.05,0 -0.05,0 c -3.09,-3.19 -7.47,-3.19 -9.07,-3.19 v -1.55 c 1,0 3.94,0 6.53,1.3 v -25.81 c 0,-1.79 -0.15,-2.39 -4.63,-2.39 h -1.6 V 406 h 16.14 v 1.54 h -1.59 c -4.49,0 -4.64,0.55 -4.64,2.39 z"
           style="fill:#000000;stroke-width:0" /><path
           id="path3126"
           d="m 566.93,435.14 0.07,0.17 0.07,0.17 0.08,0.17 0.08,0.16 0.08,0.16 0.09,0.16 0.1,0.15 0.1,0.15 0.11,0.15 0.11,0.14 0.12,0.14 0.13,0.13 0.13,0.13 0.14,0.13 0.15,0.12 0.15,0.11 0.16,0.11 0.17,0.11 0.18,0.09 0.19,0.1 0.2,0.08 0.2,0.08 0.22,0.08 0.22,0.07 0.24,0.06 0.24,0.05 0.26,0.05 0.27,0.04 0.27,0.03 0.29,0.02 0.3,0.02 0.31,0.01 v 1.54 h -10.51 v -1.54 c 2.59,-0.05 3.64,-1.35 3.64,-2.49 0,-0.4 -0.15,-0.7 -0.25,-1 l -9.12,-24.01 -9.51,25.16 c -0.3,0.7 -0.3,0.79 -0.3,0.9 0,1.44 2.84,1.44 4.09,1.44 v 1.54 h -13.45 v -1.54 c 3.23,0 4.18,0 4.88,-1.89 L 553.39,406 c 0.34,-0.95 0.59,-1.1 1.24,-1.1 0.85,0 0.95,0.25 1.19,0.95 z"
           style="fill:#000000;stroke-width:0" /><path
           id="path3128"
           d="m 594.82,441.47 0.01,0.03 0.01,0.03 0.01,0.03 0.01,0.02 0.01,0.03 0.01,0.03 0.01,0.02 0.01,0.03 0.01,0.02 0.01,0.03 0.01,0.04 0.02,0.05 0.01,0.04 0.01,0.04 0.01,0.03 0.02,0.04 0,0.03 0.01,0.03 0.01,0.03 0.01,0.03 0,0.02 0.01,0.02 0.01,0.03 0,0.02 0,0.02 0.01,0.02 0,0.01 0,0.02 0,0.01 0,0.02 0,0.01 0.01,0.01 0,0.01 0,0.02 0,0.02 c 0,0.55 -0.45,1 -1,1 -0.69,0 -0.89,-0.5 -1.05,-1 l -16.98,-46.92 c -0.25,-0.65 -0.25,-0.8 -0.25,-0.9 0,-0.54 0.45,-0.99 0.99,-0.99 0.7,0 0.9,0.49 1.05,0.99 z"
           style="fill:#000000;stroke-width:0" /><path
           id="path3130"
           d="m 603.48,423.14 v -13.35 c 0,-2.25 -0.55,-2.25 -3.89,-2.25 V 406 h 11.21 v 1.54 c -3.33,0 -3.88,0 -3.88,2.25 v 9.16 c 0,5.18 3.53,7.97 6.72,7.97 3.14,0 3.69,-2.69 3.69,-5.53 v -11.6 c 0,-2.25 -0.55,-2.25 -3.89,-2.25 V 406 h 11.21 v 1.54 c -2.59,0 -3.84,0 -3.88,1.5 v 9.51 c 0,4.29 0,5.83 -1.55,7.63 -0.7,0.84 -2.34,1.84 -5.23,1.84 -3.64,0 -5.98,-2.14 -7.37,-5.23 v 5.23 l -7.03,-0.55 v -1.54 c 3.49,0 3.89,-0.35 3.89,-2.79 z"
           style="fill:#000000;stroke-width:0" /><path
           id="path3132"
           d="m 631.48,423.14 v -13.35 c 0,-2.25 -0.55,-2.25 -3.89,-2.25 V 406 h 11.21 v 1.54 c -3.33,0 -3.88,0 -3.88,2.25 v 9.16 c 0,5.18 3.53,7.97 6.72,7.97 3.14,0 3.69,-2.69 3.69,-5.53 v -11.6 c 0,-2.25 -0.55,-2.25 -3.89,-2.25 V 406 h 11.21 v 1.54 c -3.34,0 -3.88,0 -3.88,2.25 v 9.16 c 0,5.18 3.53,7.97 6.72,7.97 3.14,0 3.69,-2.69 3.69,-5.53 v -11.6 c 0,-2.25 -0.55,-2.25 -3.89,-2.25 V 406 h 11.21 v 1.54 c -2.59,0 -3.84,0 -3.89,1.5 v 9.51 c 0,4.29 0,5.83 -1.54,7.63 -0.7,0.84 -2.34,1.84 -5.23,1.84 -4.19,0 -6.38,-2.99 -7.23,-4.88 -0.69,4.33 -4.38,4.88 -6.62,4.88 -3.64,0 -5.98,-2.14 -7.37,-5.23 v 5.23 l -7.03,-0.55 v -1.54 c 3.49,0 3.89,-0.35 3.89,-2.79 z"
           style="fill:#000000;stroke-width:0" /></g>    </g>
    <g
       id="g3306"
       transform="matrix(1.1652089,0,0,1.1652089,-450.46068,-444.662)">
      <g
         id="g3308"
         transform="matrix(1.0629921,0,0,-1.0629921,-186.02362,789.27165)"
         xml:space="preserve"
         stroke-miterlimit="10.433"
         fill-rule="even-odd"
         font-style="normal"
         font-variant="normal"
         font-weight="normal"
         font-stretch="normal"
         font-size-adjust="none"
         letter-spacing="normal"
         word-spacing="normal"
         style="font-style:normal;font-variant:normal;font-weight:normal;font-stretch:normal;letter-spacing:normal;word-spacing:normal;text-anchor:start;fill:none;stroke:#000000;stroke-linecap:butt;stroke-linejoin:miter;stroke-miterlimit:10.43299961;stroke-opacity:1;stroke-dasharray:none;stroke-dashoffset:0"><path
           d="m 462.33,409.84 5.28,5.12 c 7.77,6.88 10.76,9.57 10.76,14.55 0,5.68 -4.49,9.67 -10.57,9.67 -5.62,0 -9.31,-4.59 -9.31,-9.02 0,-2.79 2.49,-2.79 2.64,-2.79 0.85,0 2.59,0.6 2.59,2.64 0,1.29 -0.9,2.59 -2.64,2.59 -0.4,0 -0.5,0 -0.65,-0.05 1.15,3.24 3.84,5.08 6.73,5.08 4.53,0 6.67,-4.03 6.67,-8.12 0,-3.98 -2.49,-7.92 -5.23,-11.01 l -9.56,-10.66 c -0.55,-0.54 -0.55,-0.64 -0.55,-1.84 h 18.48 l 1.4,8.67 h -1.25 c -0.25,-1.5 -0.6,-3.69 -1.1,-4.44 -0.34,-0.39 -3.63,-0.39 -4.73,-0.39 z"
           id="path3310"
           style="fill:#000000;stroke-width:0" /><path
           d="m 489.56,408.64 0,0.14 -0.01,0.13 -0.02,0.13 -0.02,0.13 -0.03,0.13 -0.04,0.12 -0.04,0.12 -0.05,0.12 -0.05,0.12 -0.06,0.11 -0.06,0.11 -0.07,0.11 -0.08,0.1 -0.07,0.1 -0.09,0.1 -0.09,0.09 -0.09,0.09 -0.09,0.08 -0.1,0.08 -0.11,0.08 -0.1,0.07 -0.11,0.06 -0.12,0.06 -0.11,0.05 -0.12,0.05 -0.13,0.04 -0.12,0.04 -0.13,0.03 -0.13,0.02 -0.13,0.02 -0.13,0.01 -0.13,0 c -1.45,0 -2.64,-1.19 -2.64,-2.64 0,-1.44 1.19,-2.64 2.64,-2.64 1.44,0 2.63,1.2 2.63,2.64 z"
           id="path3312"
           style="fill:#000000;stroke-width:0" /><path
           d="m 508.64,437.88 0,0.05 0,0.06 0,0.05 0,0.05 0,0.05 0,0.05 0,0.04 0,0.05 0,0.04 0,0.04 0,0.04 0,0.04 0,0.04 -0.01,0.04 0,0.03 0,0.04 -0.01,0.03 0,0.03 -0.01,0.06 -0.01,0.05 -0.02,0.05 -0.01,0.05 -0.02,0.04 -0.02,0.04 -0.03,0.04 -0.03,0.03 -0.03,0.02 -0.03,0.03 -0.04,0.02 -0.05,0.02 -0.02,0.01 -0.03,0.01 -0.02,0 -0.03,0.01 -0.03,0.01 -0.03,0 -0.03,0.01 -0.03,0 -0.03,0.01 -0.04,0 -0.04,0 -0.03,0 -0.04,0.01 -0.04,0 -0.04,0 -0.05,0 -0.04,0 -0.05,0 -0.05,0.01 -0.05,0 -0.05,0 -0.05,0 c -3.09,-3.19 -7.47,-3.19 -9.07,-3.19 v -1.55 c 1,0 3.94,0 6.53,1.3 v -25.81 c 0,-1.79 -0.15,-2.39 -4.63,-2.39 h -1.6 V 406 h 16.14 v 1.54 h -1.59 c -4.49,0 -4.64,0.55 -4.64,2.39 z"
           id="path3314"
           style="fill:#000000;stroke-width:0" /><path
           d="m 566.93,435.14 0.07,0.17 0.07,0.17 0.08,0.17 0.08,0.16 0.08,0.16 0.09,0.16 0.1,0.15 0.1,0.15 0.11,0.15 0.11,0.14 0.12,0.14 0.13,0.13 0.13,0.13 0.14,0.13 0.15,0.12 0.15,0.11 0.16,0.11 0.17,0.11 0.18,0.09 0.19,0.1 0.2,0.08 0.2,0.08 0.22,0.08 0.22,0.07 0.24,0.06 0.24,0.05 0.26,0.05 0.27,0.04 0.27,0.03 0.29,0.02 0.3,0.02 0.31,0.01 v 1.54 h -10.51 v -1.54 c 2.59,-0.05 3.64,-1.35 3.64,-2.49 0,-0.4 -0.15,-0.7 -0.25,-1 l -9.12,-24.01 -9.51,25.16 c -0.3,0.7 -0.3,0.79 -0.3,0.9 0,1.44 2.84,1.44 4.09,1.44 v 1.54 h -13.45 v -1.54 c 3.23,0 4.18,0 4.88,-1.89 L 553.39,406 c 0.34,-0.95 0.59,-1.1 1.24,-1.1 0.85,0 0.95,0.25 1.19,0.95 z"
           id="path3316"
           style="fill:#000000;stroke-width:0" /><path
           d="m 594.82,441.47 0.01,0.03 0.01,0.03 0.01,0.03 0.01,0.02 0.01,0.03 0.01,0.03 0.01,0.02 0.01,0.03 0.01,0.02 0.01,0.03 0.01,0.04 0.02,0.05 0.01,0.04 0.01,0.04 0.01,0.03 0.02,0.04 0,0.03 0.01,0.03 0.01,0.03 0.01,0.03 0,0.02 0.01,0.02 0.01,0.03 0,0.02 0,0.02 0.01,0.02 0,0.01 0,0.02 0,0.01 0,0.02 0,0.01 0.01,0.01 0,0.01 0,0.02 0,0.02 c 0,0.55 -0.45,1 -1,1 -0.69,0 -0.89,-0.5 -1.05,-1 l -16.98,-46.92 c -0.25,-0.65 -0.25,-0.8 -0.25,-0.9 0,-0.54 0.45,-0.99 0.99,-0.99 0.7,0 0.9,0.49 1.05,0.99 z"
           id="path3318"
           style="fill:#000000;stroke-width:0" /><path
           d="m 603.48,423.14 v -13.35 c 0,-2.25 -0.55,-2.25 -3.89,-2.25 V 406 h 11.21 v 1.54 c -3.33,0 -3.88,0 -3.88,2.25 v 9.16 c 0,5.18 3.53,7.97 6.72,7.97 3.14,0 3.69,-2.69 3.69,-5.53 v -11.6 c 0,-2.25 -0.55,-2.25 -3.89,-2.25 V 406 h 11.21 v 1.54 c -2.59,0 -3.84,0 -3.88,1.5 v 9.51 c 0,4.29 0,5.83 -1.55,7.63 -0.7,0.84 -2.34,1.84 -5.23,1.84 -3.64,0 -5.98,-2.14 -7.37,-5.23 v 5.23 l -7.03,-0.55 v -1.54 c 3.49,0 3.89,-0.35 3.89,-2.79 z"
           id="path3320"
           style="fill:#000000;stroke-width:0" /><path
           d="m 631.48,423.14 v -13.35 c 0,-2.25 -0.55,-2.25 -3.89,-2.25 V 406 h 11.21 v 1.54 c -3.33,0 -3.88,0 -3.88,2.25 v 9.16 c 0,5.18 3.53,7.97 6.72,7.97 3.14,0 3.69,-2.69 3.69,-5.53 v -11.6 c 0,-2.25 -0.55,-2.25 -3.89,-2.25 V 406 h 11.21 v 1.54 c -3.34,0 -3.88,0 -3.88,2.25 v 9.16 c 0,5.18 3.53,7.97 6.72,7.97 3.14,0 3.69,-2.69 3.69,-5.53 v -11.6 c 0,-2.25 -0.55,-2.25 -3.89,-2.25 V 406 h 11.21 v 1.54 c -2.59,0 -3.84,0 -3.89,1.5 v 9.51 c 0,4.29 0,5.83 -1.54,7.63 -0.7,0.84 -2.34,1.84 -5.23,1.84 -4.19,0 -6.38,-2.99 -7.23,-4.88 -0.69,4.33 -4.38,4.88 -6.62,4.88 -3.64,0 -5.98,-2.14 -7.37,-5.23 v 5.23 l -7.03,-0.55 v -1.54 c 3.49,0 3.89,-0.35 3.89,-2.79 z"
           id="path3322"
           style="fill:#000000;stroke-width:0" /></g>    </g>
    <g
       id="g3514"
       transform="matrix(1.1652089,0,0,1.1652089,-445.66541,490.32344)">
      <g
         word-spacing="normal"
         letter-spacing="normal"
         font-size-adjust="none"
         font-stretch="normal"
         font-weight="normal"
         font-variant="normal"
         font-style="normal"
         fill-rule="even-odd"
         stroke-miterlimit="10.433"
         xml:space="preserve"
         transform="matrix(1.0629921,0,0,-1.0629921,-186.02362,789.27165)"
         id="g3516"
         style="font-style:normal;font-variant:normal;font-weight:normal;font-stretch:normal;letter-spacing:normal;word-spacing:normal;text-anchor:start;fill:none;stroke:#000000;stroke-linecap:butt;stroke-linejoin:miter;stroke-miterlimit:10.43299961;stroke-opacity:1;stroke-dasharray:none;stroke-dashoffset:0"><path
           id="path3518"
           d="m 462.33,409.84 5.28,5.12 c 7.77,6.88 10.76,9.57 10.76,14.55 0,5.68 -4.49,9.67 -10.57,9.67 -5.62,0 -9.31,-4.59 -9.31,-9.02 0,-2.79 2.49,-2.79 2.64,-2.79 0.85,0 2.59,0.6 2.59,2.64 0,1.29 -0.9,2.59 -2.64,2.59 -0.4,0 -0.5,0 -0.65,-0.05 1.15,3.24 3.84,5.08 6.73,5.08 4.53,0 6.67,-4.03 6.67,-8.12 0,-3.98 -2.49,-7.92 -5.23,-11.01 l -9.56,-10.66 c -0.55,-0.54 -0.55,-0.64 -0.55,-1.84 h 18.48 l 1.4,8.67 h -1.25 c -0.25,-1.5 -0.6,-3.69 -1.1,-4.44 -0.34,-0.39 -3.63,-0.39 -4.73,-0.39 z"
           style="fill:#000000;stroke-width:0" /><path
           id="path3520"
           d="m 489.56,408.64 0,0.14 -0.01,0.13 -0.02,0.13 -0.02,0.13 -0.03,0.13 -0.04,0.12 -0.04,0.12 -0.05,0.12 -0.05,0.12 -0.06,0.11 -0.06,0.11 -0.07,0.11 -0.08,0.1 -0.07,0.1 -0.09,0.1 -0.09,0.09 -0.09,0.09 -0.09,0.08 -0.1,0.08 -0.11,0.08 -0.1,0.07 -0.11,0.06 -0.12,0.06 -0.11,0.05 -0.12,0.05 -0.13,0.04 -0.12,0.04 -0.13,0.03 -0.13,0.02 -0.13,0.02 -0.13,0.01 -0.13,0 c -1.45,0 -2.64,-1.19 -2.64,-2.64 0,-1.44 1.19,-2.64 2.64,-2.64 1.44,0 2.63,1.2 2.63,2.64 z"
           style="fill:#000000;stroke-width:0" /><path
           id="path3522"
           d="m 509.39,424.03 0.33,0.18 0.33,0.18 0.32,0.18 0.31,0.19 0.3,0.19 0.3,0.2 0.29,0.2 0.28,0.2 0.27,0.21 0.26,0.22 0.25,0.22 0.25,0.22 0.23,0.22 0.22,0.24 0.22,0.23 0.2,0.24 0.19,0.24 0.19,0.25 0.17,0.25 0.16,0.26 0.15,0.26 0.13,0.27 0.13,0.27 0.11,0.27 0.1,0.28 0.09,0.28 0.07,0.28 0.07,0.29 0.04,0.3 0.04,0.3 0.02,0.3 0.01,0.3 c 0,4.59 -4.44,7.43 -8.97,7.43 l -0.05,-1.25 c 3.64,0 6.83,-2.59 6.83,-6.18 0,-2.84 -1.94,-5.23 -4.93,-6.97 l -6.18,3.99 c -2.29,1.49 -2.49,3.18 -2.49,4.03 0,3.04 3.24,5.13 6.77,5.13 l 0.05,1.25 c -4.98,0 -9.01,-3.69 -9.01,-8.32 0,-0.9 0.1,-3.14 2.19,-5.48 0.55,-0.6 2.39,-1.84 3.64,-2.69 l 1.14,-0.75 6.13,-3.89 c 1.39,-0.94 3.73,-2.44 3.73,-5.48 0,-3.68 -3.73,-6.27 -7.82,-6.27 -4.28,0 -7.87,3.09 -7.87,7.22 0,2.89 1.6,6.08 5.83,8.42 h 0 l -1.14,0.75 c -2.89,-1.45 -7.18,-4.24 -7.18,-9.17 0,-5.28 5.08,-8.62 10.31,-8.62 5.63,0 10.37,4.14 10.37,9.47 0,1.79 -0.55,4.03 -2.45,6.13 -0.94,1.04 -1.74,1.54 -4.93,3.53 z"
           style="fill:#000000;stroke-width:0" /><path
           id="path3524"
           d="m 566.93,435.14 0.07,0.17 0.07,0.17 0.08,0.17 0.08,0.16 0.08,0.16 0.09,0.16 0.1,0.15 0.1,0.15 0.11,0.15 0.11,0.14 0.12,0.14 0.13,0.13 0.13,0.13 0.14,0.13 0.15,0.12 0.15,0.11 0.16,0.11 0.17,0.11 0.18,0.09 0.19,0.1 0.2,0.08 0.2,0.08 0.22,0.08 0.22,0.07 0.24,0.06 0.24,0.05 0.26,0.05 0.27,0.04 0.27,0.03 0.29,0.02 0.3,0.02 0.31,0.01 v 1.54 h -10.51 v -1.54 c 2.59,-0.05 3.64,-1.35 3.64,-2.49 0,-0.4 -0.15,-0.7 -0.25,-1 l -9.12,-24.01 -9.51,25.16 c -0.3,0.7 -0.3,0.79 -0.3,0.9 0,1.44 2.84,1.44 4.09,1.44 v 1.54 h -13.45 v -1.54 c 3.23,0 4.18,0 4.88,-1.89 L 553.39,406 c 0.34,-0.95 0.59,-1.1 1.24,-1.1 0.85,0 0.95,0.25 1.19,0.95 z"
           style="fill:#000000;stroke-width:0" /><path
           id="path3526"
           d="m 594.82,441.47 0.01,0.03 0.01,0.03 0.01,0.03 0.01,0.02 0.01,0.03 0.01,0.03 0.01,0.02 0.01,0.03 0.01,0.02 0.01,0.03 0.01,0.04 0.02,0.05 0.01,0.04 0.01,0.04 0.01,0.03 0.02,0.04 0,0.03 0.01,0.03 0.01,0.03 0.01,0.03 0,0.02 0.01,0.02 0.01,0.03 0,0.02 0,0.02 0.01,0.02 0,0.01 0,0.02 0,0.01 0,0.02 0,0.01 0.01,0.01 0,0.01 0,0.02 0,0.02 c 0,0.55 -0.45,1 -1,1 -0.69,0 -0.89,-0.5 -1.05,-1 l -16.98,-46.92 c -0.25,-0.65 -0.25,-0.8 -0.25,-0.9 0,-0.54 0.45,-0.99 0.99,-0.99 0.7,0 0.9,0.49 1.05,0.99 z"
           style="fill:#000000;stroke-width:0" /><path
           id="path3528"
           d="m 603.48,423.14 v -13.35 c 0,-2.25 -0.55,-2.25 -3.89,-2.25 V 406 h 11.21 v 1.54 c -3.33,0 -3.88,0 -3.88,2.25 v 9.16 c 0,5.18 3.53,7.97 6.72,7.97 3.14,0 3.69,-2.69 3.69,-5.53 v -11.6 c 0,-2.25 -0.55,-2.25 -3.89,-2.25 V 406 h 11.21 v 1.54 c -2.59,0 -3.84,0 -3.88,1.5 v 9.51 c 0,4.29 0,5.83 -1.55,7.63 -0.7,0.84 -2.34,1.84 -5.23,1.84 -3.64,0 -5.98,-2.14 -7.37,-5.23 v 5.23 l -7.03,-0.55 v -1.54 c 3.49,0 3.89,-0.35 3.89,-2.79 z"
           style="fill:#000000;stroke-width:0" /><path
           id="path3530"
           d="m 631.48,423.14 v -13.35 c 0,-2.25 -0.55,-2.25 -3.89,-2.25 V 406 h 11.21 v 1.54 c -3.33,0 -3.88,0 -3.88,2.25 v 9.16 c 0,5.18 3.53,7.97 6.72,7.97 3.14,0 3.69,-2.69 3.69,-5.53 v -11.6 c 0,-2.25 -0.55,-2.25 -3.89,-2.25 V 406 h 11.21 v 1.54 c -3.34,0 -3.88,0 -3.88,2.25 v 9.16 c 0,5.18 3.53,7.97 6.72,7.97 3.14,0 3.69,-2.69 3.69,-5.53 v -11.6 c 0,-2.25 -0.55,-2.25 -3.89,-2.25 V 406 h 11.21 v 1.54 c -2.59,0 -3.84,0 -3.89,1.5 v 9.51 c 0,4.29 0,5.83 -1.54,7.63 -0.7,0.84 -2.34,1.84 -5.23,1.84 -4.19,0 -6.38,-2.99 -7.23,-4.88 -0.69,4.33 -4.38,4.88 -6.62,4.88 -3.64,0 -5.98,-2.14 -7.37,-5.23 v 5.23 l -7.03,-0.55 v -1.54 c 3.49,0 3.89,-0.35 3.89,-2.79 z"
           style="fill:#000000;stroke-width:0" /></g>    </g>
  </g>
</svg>
